<svg xmlns="http://www.w3.org/2000/svg" viewBox="0 0 64 64">
  <title>Heart postage stamp favicon</title>
  <path fill="#D9A0A8" d="M10 5H11.6A2.4 2.4 0 0 0 16.4 5H23.6A2.4 2.4 0 0 0 28.4 5H35.6A2.4 2.4 0 0 0 40.4 5H47.6A2.4 2.4 0 0 0 52.4 5H54A5 5 0 0 1 59 10V11.6A2.4 2.4 0 0 0 59 16.4V23.6A2.4 2.4 0 0 0 59 28.4V35.6A2.4 2.4 0 0 0 59 40.4V47.6A2.4 2.4 0 0 0 59 52.4V54A5 5 0 0 1 54 59H52.4A2.4 2.4 0 0 0 47.6 59H40.4A2.4 2.4 0 0 0 35.6 59H28.4A2.4 2.4 0 0 0 23.6 59H16.4A2.4 2.4 0 0 0 11.6 59H10A5 5 0 0 1 5 54V52.4A2.4 2.4 0 0 0 5 47.6V40.4A2.4 2.4 0 0 0 5 35.6V28.4A2.4 2.4 0 0 0 5 23.6V16.4A2.4 2.4 0 0 0 5 11.6V10A5 5 0 0 1 10 5Z"/>
  <rect x="13" y="13" width="38" height="38" rx="4" fill="none" stroke="#FFFAF2" stroke-width="2" opacity=".78"/>
  <path fill="#AE3550" d="M32 47C30.7 45.8 20 36.7 20 29C20 24.6 23.6 21 28.1 21C29.8 21 31.4 21.7 32 23.3C32.6 21.7 34.2 21 35.9 21C40.4 21 44 24.6 44 29C44 36.7 33.3 45.8 32 47Z"/>
</svg>
