<svg xmlns="http://www.w3.org/2000/svg" viewBox="0 0 64 64">
  <title>Heart postage stamp favicon</title>
  <path fill="#D9A0A8" d="M10 5H11.6C11.6 8.2 16.4 8.2 16.4 5H23.6C23.6 8.2 28.4 8.2 28.4 5H35.6C35.6 8.2 40.4 8.2 40.4 5H47.6C47.6 8.2 52.4 8.2 52.4 5H54Q59 5 59 10V11.6C55.8 11.6 55.8 16.4 59 16.4V23.6C55.8 23.6 55.8 28.4 59 28.4V35.6C55.8 35.6 55.8 40.4 59 40.4V47.6C55.8 47.6 55.8 52.4 59 52.4V54Q59 59 54 59H52.4C52.4 55.8 47.6 55.8 47.6 59H40.4C40.4 55.8 35.6 55.8 35.6 59H28.4C28.4 55.8 23.6 55.8 23.6 59H16.4C16.4 55.8 11.6 55.8 11.6 59H10Q5 59 5 54V52.4C8.2 52.4 8.2 47.6 5 47.6V40.4C8.2 40.4 8.2 35.6 5 35.6V28.4C8.2 28.4 8.2 23.6 5 23.6V16.4C8.2 16.4 8.2 11.6 5 11.6V10Q5 5 10 5Z"/>
  <rect x="13" y="13" width="38" height="38" rx="4" fill="none" stroke="#FFFAF2" stroke-width="2" opacity=".78"/>
  <path fill="#AE3550" d="M32 47C30.7 45.8 20 36.7 20 29C20 24.6 23.6 21 28.1 21C29.8 21 31.4 21.7 32 23.3C32.6 21.7 34.2 21 35.9 21C40.4 21 44 24.6 44 29C44 36.7 33.3 45.8 32 47Z"/>
</svg>
